# Blender v2.80 (sub 75) OBJ File: 'towers.blend'
# www.blender.org
mtllib tower.mtl
o Cylinder
v -0.000001 -0.201886 -9.187622
v -0.000001 32.317165 -9.312220
v 3.515948 -0.201886 -8.488256
v 3.563632 32.317165 -8.603369
v 6.496626 -0.201886 -6.496632
v 6.584734 32.317165 -6.584733
v 8.488251 -0.201887 -3.515954
v 8.603369 32.317165 -3.563632
v 9.187616 -0.201887 -0.000004
v 9.312221 32.317165 0.000002
v 8.488251 -0.201888 3.515945
v 8.603369 32.317165 3.563635
v 6.496626 -0.201888 6.496622
v 6.584734 32.317165 6.584735
v 3.515949 -0.201889 8.488246
v 3.563632 32.317165 8.603372
v 0.000001 -0.201889 9.187613
v 0.000001 32.317165 9.312222
v -3.515948 -0.201889 8.488248
v -3.563632 32.317165 8.603373
v -6.496625 -0.201888 6.496624
v -6.584734 32.317165 6.584738
v -8.488253 -0.201888 3.515946
v -8.603371 32.317165 3.563636
v -9.187617 -0.201887 -0.000005
v -9.312222 32.317165 0.000001
v -8.488251 -0.201887 -3.515955
v -8.603371 32.317165 -3.563633
v -6.496625 -0.201886 -6.496634
v -6.584734 32.317165 -6.584736
v -3.515945 -0.201886 -8.488259
v -3.563629 32.317165 -8.603372
v 4.674183 32.317165 -11.284476
v -0.000001 32.317169 -12.214230
v 8.636765 32.317165 -8.636765
v 11.284477 32.317165 -4.674183
v 12.214231 32.317165 0.000002
v 11.284477 32.317165 4.674187
v 8.636765 32.317165 8.636767
v 4.674184 32.317165 11.284480
v 0.000001 32.317162 12.214234
v -4.674182 32.317165 11.284482
v -8.636766 32.317165 8.636770
v -11.284480 32.317165 4.674188
v -12.214233 32.317165 0.000001
v -11.284480 32.317165 -4.674185
v -8.636765 32.317165 -8.636767
v -4.674180 32.317165 -11.284480
v 4.674183 36.776142 -11.284476
v -0.000001 36.776146 -12.214230
v 11.284477 36.776142 -4.674182
v 8.636765 36.776142 -8.636765
v 11.284477 36.776142 4.674188
v 12.214231 36.776142 0.000003
v 4.674184 36.776142 11.284480
v 8.636765 36.776142 8.636767
v -4.674182 36.776142 11.284482
v 0.000001 36.776138 12.214234
v -11.284480 36.776142 4.674189
v -8.636766 36.776142 8.636770
v -11.284480 36.776142 -4.674184
v -12.214233 36.776142 0.000002
v -4.674180 36.776142 -11.284480
v -8.636765 36.776142 -8.636767
v 3.563632 36.776142 -8.603369
v -0.000001 36.776142 -9.312220
v 8.603369 36.776142 -3.563631
v 6.584734 36.776142 -6.584732
v 8.603369 36.776142 3.563636
v 9.312221 36.776142 0.000003
v 3.563632 36.776142 8.603372
v 6.584734 36.776142 6.584736
v -3.563632 36.776142 8.603373
v 0.000001 36.776142 9.312222
v -8.603371 36.776142 3.563636
v -6.584734 36.776142 6.584739
v -8.603371 36.776142 -3.563632
v -9.312222 36.776142 0.000002
v -3.563629 36.776142 -8.603372
v -6.584734 36.776142 -6.584735
v -0.000001 26.736391 -12.214231
v 4.674183 26.736391 -11.284477
v 8.636765 26.736391 -8.636765
v 11.284477 26.736389 -4.674184
v 12.214231 26.736389 0.000001
v 11.284477 26.736389 4.674186
v 8.636765 26.736387 8.636766
v 4.674184 26.736387 11.284479
v 0.000001 26.736387 12.214233
v -4.674182 26.736387 11.284481
v -8.636766 26.736387 8.636769
v -11.284480 26.736389 4.674187
v -12.214233 26.736389 0.000000
v -11.284480 26.736389 -4.674186
v -8.636765 26.736391 -8.636768
v -4.674180 26.736391 -11.284481
v 3.515948 24.026730 -8.488252
v 6.496626 24.026730 -6.496627
v 8.488251 24.026728 -3.515949
v 9.187616 24.026728 0.000000
v 8.488251 24.026728 3.515949
v 6.496626 24.026726 6.496626
v 3.515949 24.026726 8.488251
v 0.000001 24.026726 9.187617
v -3.515948 24.026726 8.488253
v -6.496625 24.026726 6.496629
v -8.488253 24.026728 3.515950
v -9.187617 24.026728 -0.000000
v -8.488251 24.026728 -3.515951
v -6.496625 24.026730 -6.496630
v -3.515945 24.026730 -8.488255
v -0.000001 24.026730 -9.187618
v 3.563632 29.715374 -8.603370
v -0.000001 29.715374 -9.312221
v 6.584734 29.715374 -6.584733
v 8.603369 29.715372 -3.563632
v 9.312221 29.715372 0.000002
v 8.603369 29.715372 3.563634
v 6.584734 29.715370 6.584734
v 3.563633 29.715370 8.603371
v 0.000001 29.715370 9.312222
v -3.563631 29.715370 8.603372
v -6.584734 29.715370 6.584737
v -8.603371 29.715372 3.563635
v -9.312222 29.715372 0.000001
v -8.603371 29.715372 -3.563633
v -6.584734 29.715374 -6.584736
v -3.563629 29.715374 -8.603373
vt 1.000000 0.885773
vt 1.000000 1.000000
vt 0.937500 1.000000
vt 0.937500 0.885773
vt 0.875000 1.000000
vt 0.875000 0.885773
vt 0.812500 1.000000
vt 0.812500 0.885773
vt 0.750000 1.000000
vt 0.750000 0.885773
vt 0.687500 1.000000
vt 0.687500 0.885773
vt 0.625000 1.000000
vt 0.625000 0.885773
vt 0.562500 1.000000
vt 0.562500 0.885773
vt 0.500000 1.000000
vt 0.500000 0.885773
vt 0.437500 1.000000
vt 0.437500 0.885773
vt 0.375000 1.000000
vt 0.375000 0.885773
vt 0.312500 1.000000
vt 0.312500 0.885773
vt 0.250000 1.000000
vt 0.250000 0.885773
vt 0.187500 1.000000
vt 0.187500 0.885773
vt 0.125000 1.000000
vt 0.125000 0.885773
vt 0.250000 0.067022
vt 0.320023 0.080951
vt 0.320023 0.080951
vt 0.250000 0.067022
vt 0.062500 1.000000
vt 0.062500 0.885773
vt 0.000000 1.000000
vt 0.000000 0.885773
vt 0.750000 0.490000
vt 0.841844 0.471731
vt 0.919706 0.419706
vt 0.971731 0.341844
vt 0.990000 0.250000
vt 0.971731 0.158156
vt 0.919706 0.080294
vt 0.841844 0.028269
vt 0.750000 0.010000
vt 0.658156 0.028269
vt 0.580294 0.080294
vt 0.528269 0.158156
vt 0.510000 0.250000
vt 0.528269 0.341844
vt 0.580294 0.419706
vt 0.658156 0.471731
vt 0.179978 0.419050
vt 0.158156 0.471731
vt 0.158156 0.471731
vt 0.179978 0.419050
vt 0.320023 0.419049
vt 0.379385 0.379385
vt 0.419706 0.419706
vt 0.341844 0.471731
vt 0.432978 0.250000
vt 0.419049 0.179977
vt 0.419049 0.179977
vt 0.432978 0.250000
vt 0.419049 0.320023
vt 0.490000 0.250000
vt 0.471731 0.341844
vt 0.341844 0.471731
vt 0.320023 0.419049
vt 0.379385 0.120615
vt 0.419706 0.080294
vt 0.471731 0.158156
vt 0.250000 1.000000
vt 0.187500 1.000000
vt 0.250000 0.010000
vt 0.341844 0.028269
vt 0.080294 0.419706
vt 0.120615 0.379385
vt 0.120615 0.379385
vt 0.080294 0.419706
vt 0.179977 0.080951
vt 0.120615 0.120615
vt 0.080294 0.080294
vt 0.158156 0.028269
vt 0.250000 0.490000
vt 0.250000 0.432978
vt 0.250000 0.432978
vt 0.250000 0.490000
vt 0.080950 0.179977
vt 0.067022 0.250000
vt 0.010000 0.250000
vt 0.028269 0.158156
vt 0.080951 0.320023
vt 0.028269 0.341844
vt 0.028269 0.341844
vt 0.080951 0.320023
vt 0.419049 0.320023
vt 0.379385 0.379385
vt 0.471731 0.341844
vt 0.419706 0.419706
vt 0.471731 0.158156
vt 0.490000 0.250000
vt 0.379385 0.120615
vt 0.320023 0.080951
vt 0.341844 0.028269
vt 0.419706 0.080294
vt 0.250000 0.067022
vt 0.179977 0.080951
vt 0.158156 0.028269
vt 0.250000 0.010000
vt 0.120615 0.120615
vt 0.080950 0.179977
vt 0.028269 0.158156
vt 0.080294 0.080294
vt 0.067022 0.250000
vt 0.010000 0.250000
vt 0.500000 1.000000
vt 0.437500 1.000000
vt 0.750000 1.000000
vt 0.687500 1.000000
vt 1.000000 1.000000
vt 0.937500 1.000000
vt 0.125000 1.000000
vt 0.062500 1.000000
vt 0.375000 1.000000
vt 0.312500 1.000000
vt 0.625000 1.000000
vt 0.562500 1.000000
vt 0.875000 1.000000
vt 0.812500 1.000000
vt 0.062500 0.877024
vt 0.000000 0.877024
vt 0.125000 0.877024
vt 0.187500 0.877024
vt 0.250000 0.877024
vt 0.312500 0.877024
vt 0.375000 0.877024
vt 0.437500 0.877024
vt 0.500000 0.877024
vt 0.562500 0.877024
vt 0.625000 0.877024
vt 0.687500 0.877024
vt 0.750000 0.877024
vt 0.812500 0.877024
vt 0.875000 0.877024
vt 0.937500 0.877024
vt 1.000000 0.877024
vt 0.320023 0.419049
vt 0.250000 0.432978
vt 0.179978 0.419050
vt 0.120615 0.379385
vt 0.080951 0.320023
vt 0.067022 0.250000
vt 0.080950 0.179977
vt 0.120615 0.120615
vt 0.179977 0.080951
vt 0.379385 0.120615
vt 0.419049 0.179977
vt 0.432978 0.250000
vt 0.419049 0.320023
vt 0.379385 0.379385
vt 0.062500 0.500000
vt 0.000000 0.500000
vt 0.125000 0.500000
vt 0.187500 0.500000
vt 0.250000 0.500000
vt 0.312500 0.500000
vt 0.375000 0.500000
vt 0.437500 0.500000
vt 0.500000 0.500000
vt 0.562500 0.500000
vt 0.625000 0.500000
vt 0.687500 0.500000
vt 0.750000 0.500000
vt 0.812500 0.500000
vt 0.875000 0.500000
vt 0.937500 0.500000
vt 1.000000 0.500000
vn 0.1951 0.0000 -0.9808
vn 0.5556 0.0000 -0.8315
vn 0.8315 0.0000 -0.5556
vn 0.9808 -0.0000 -0.1951
vn 0.9808 -0.0000 0.1951
vn 0.8315 -0.0000 0.5556
vn 0.5556 -0.0000 0.8315
vn 0.1951 -0.0000 0.9808
vn -0.1951 -0.0000 0.9808
vn -0.5556 -0.0000 0.8315
vn -0.8315 -0.0000 0.5556
vn -0.9808 0.0000 0.1951
vn -0.9808 0.0000 -0.1951
vn -0.8315 0.0000 -0.5556
vn -0.1951 0.0000 -0.9808
vn -0.5556 0.0000 -0.8315
vn 0.0000 -1.0000 -0.0000
vn 0.9239 0.0000 -0.3827
vn 0.0000 1.0000 0.0000
vn 0.9239 0.0000 0.3827
vn -0.7071 0.0000 0.7071
vn -1.0000 0.0000 -0.0000
vn 0.3827 0.0000 -0.9239
vn -0.7071 0.0000 -0.7071
vn 0.3827 -0.0000 0.9239
vn -0.0000 0.0000 -1.0000
vn -0.3827 -0.0000 0.9239
vn 0.7071 0.0000 -0.7071
vn -0.9239 0.0000 0.3827
vn 1.0000 0.0000 -0.0000
vn -0.9239 0.0000 -0.3827
vn 0.7071 -0.0000 0.7071
vn -0.3827 0.0000 -0.9239
vn -0.0000 -0.0000 1.0000
vn -0.1315 -0.7386 -0.6612
vn -0.3746 -0.7386 -0.5606
vn -0.5606 -0.7386 -0.3746
vn -0.6612 -0.7386 -0.1315
vn -0.6612 -0.7386 0.1315
vn -0.5606 -0.7386 0.3746
vn -0.3746 -0.7386 0.5606
vn -0.1315 -0.7386 0.6612
vn 0.1315 -0.7386 0.6612
vn 0.3746 -0.7386 0.5606
vn 0.5606 -0.7386 0.3746
vn 0.6612 -0.7386 0.1315
vn 0.6612 -0.7386 -0.1315
vn 0.5606 -0.7386 -0.3746
vn 0.3746 -0.7386 -0.5606
vn 0.1315 -0.7386 -0.6612
usemtl None
s off
f 81/1/1 34/2/1 33/3/1 82/4/1
f 82/4/2 33/3/2 35/5/2 83/6/2
f 83/6/3 35/5/3 36/7/3 84/8/3
f 84/8/4 36/7/4 37/9/4 85/10/4
f 85/10/5 37/9/5 38/11/5 86/12/5
f 86/12/6 38/11/6 39/13/6 87/14/6
f 87/14/7 39/13/7 40/15/7 88/16/7
f 88/16/8 40/15/8 41/17/8 89/18/8
f 89/18/9 41/17/9 42/19/9 90/20/9
f 90/20/10 42/19/10 43/21/10 91/22/10
f 91/22/11 43/21/11 44/23/11 92/24/11
f 92/24/12 44/23/12 45/25/12 93/26/12
f 93/26/13 45/25/13 46/27/13 94/28/13
f 94/28/14 46/27/14 47/29/14 95/30/14
f 18/31/15 16/32/15 120/33/15 121/34/15
f 95/30/16 47/29/16 48/35/16 96/36/16
f 96/36/15 48/35/15 34/37/15 81/38/15
f 1/39/17 3/40/17 5/41/17 7/42/17 9/43/17 11/44/17 13/45/17 15/46/17 17/47/17 19/48/17 21/49/17 23/50/17 25/51/17 27/52/17 29/53/17 31/54/17
f 32/55/18 48/56/18 63/57/18 79/58/18
f 4/59/19 6/60/19 35/61/19 33/62/19
f 10/63/13 12/64/13 69/65/13 70/66/13
f 8/67/19 10/63/19 37/68/19 36/69/19
f 4/59/20 33/62/20 49/70/20 65/71/20
f 12/64/19 14/72/19 39/73/19 38/74/19
f 46/27/13 45/25/13 62/75/13 61/76/13
f 16/32/19 18/31/19 41/77/19 40/78/19
f 47/79/21 30/80/21 80/81/21 64/82/21
f 20/83/19 22/84/19 43/85/19 42/86/19
f 34/87/22 2/88/22 66/89/22 50/90/22
f 24/91/19 26/92/19 45/93/19 44/94/19
f 28/95/23 46/96/23 61/97/23 77/98/23
f 28/95/19 30/80/19 47/79/19 46/96/19
f 6/60/11 8/67/11 67/99/11 68/100/11
f 32/55/19 2/88/19 34/87/19 48/56/19
f 66/89/19 65/71/19 49/70/19 50/90/19
f 68/100/19 67/99/19 51/101/19 52/102/19
f 70/66/19 69/65/19 53/103/19 54/104/19
f 72/105/19 71/106/19 55/107/19 56/108/19
f 74/109/19 73/110/19 57/111/19 58/112/19
f 76/113/19 75/114/19 59/115/19 60/116/19
f 78/117/19 77/98/19 61/97/19 62/118/19
f 80/81/19 79/58/19 63/57/19 64/82/19
f 35/61/24 6/60/24 68/100/24 52/102/24
f 42/19/9 41/17/9 58/119/9 57/120/9
f 8/67/25 36/69/25 51/101/25 67/99/25
f 14/72/16 16/32/16 71/106/16 72/105/16
f 38/11/5 37/9/5 54/121/5 53/122/5
f 37/68/26 10/63/26 70/66/26 54/104/26
f 33/3/1 34/2/1 50/123/1 49/124/1
f 12/64/27 38/74/27 53/103/27 69/65/27
f 18/31/1 20/83/1 73/110/1 74/109/1
f 39/73/28 14/72/28 72/105/28 56/108/28
f 48/35/16 47/29/16 64/125/16 63/126/16
f 16/32/29 40/78/29 55/107/29 71/106/29
f 22/84/3 24/91/3 75/114/3 76/113/3
f 41/77/30 18/31/30 74/109/30 58/112/30
f 44/23/11 43/21/11 60/127/11 59/128/11
f 20/83/31 42/86/31 57/111/31 73/110/31
f 26/92/5 28/95/5 77/98/5 78/117/5
f 40/15/7 39/13/7 56/129/7 55/130/7
f 43/85/32 22/84/32 76/113/32 60/116/32
f 2/88/9 4/59/9 65/71/9 66/89/9
f 24/91/33 44/94/33 59/115/33 75/114/33
f 36/7/3 35/5/3 52/131/3 51/132/3
f 30/80/7 32/55/7 79/58/7 80/81/7
f 45/93/34 26/92/34 78/117/34 62/118/34
f 111/133/35 96/36/35 81/38/35 112/134/35
f 110/135/36 95/30/36 96/36/36 111/133/36
f 109/136/37 94/28/37 95/30/37 110/135/37
f 108/137/38 93/26/38 94/28/38 109/136/38
f 107/138/39 92/24/39 93/26/39 108/137/39
f 106/139/40 91/22/40 92/24/40 107/138/40
f 105/140/41 90/20/41 91/22/41 106/139/41
f 104/141/42 89/18/42 90/20/42 105/140/42
f 103/142/43 88/16/43 89/18/43 104/141/43
f 102/143/44 87/14/44 88/16/44 103/142/44
f 101/144/45 86/12/45 87/14/45 102/143/45
f 100/145/46 85/10/46 86/12/46 101/144/46
f 99/146/47 84/8/47 85/10/47 100/145/47
f 98/147/48 83/6/48 84/8/48 99/146/48
f 97/148/49 82/4/49 83/6/49 98/147/49
f 112/149/50 81/1/50 82/4/50 97/148/50
f 113/150/19 114/151/19 128/152/19 127/153/19 126/154/19 125/155/19 124/156/19 123/157/19 122/158/19 121/34/19 120/33/19 119/159/19 118/160/19 117/161/19 116/162/19 115/163/19
f 4/59/9 2/88/9 114/151/9 113/150/9
f 2/88/8 32/55/8 128/152/8 114/151/8
f 20/83/1 18/31/1 121/34/1 122/158/1
f 6/60/10 4/59/10 113/150/10 115/163/10
f 22/84/2 20/83/2 122/158/2 123/157/2
f 8/67/11 6/60/11 115/163/11 116/162/11
f 24/91/3 22/84/3 123/157/3 124/156/3
f 10/63/12 8/67/12 116/162/12 117/161/12
f 26/92/4 24/91/4 124/156/4 125/155/4
f 12/64/13 10/63/13 117/161/13 118/160/13
f 28/95/5 26/92/5 125/155/5 126/154/5
f 14/72/14 12/64/14 118/160/14 119/159/14
f 30/80/6 28/95/6 126/154/6 127/153/6
f 16/32/16 14/72/16 119/159/16 120/33/16
f 32/55/7 30/80/7 127/153/7 128/152/7
f 31/164/15 111/133/15 112/134/15 1/165/15
f 29/166/16 110/135/16 111/133/16 31/164/16
f 27/167/14 109/136/14 110/135/14 29/166/14
f 25/168/13 108/137/13 109/136/13 27/167/13
f 23/169/12 107/138/12 108/137/12 25/168/12
f 21/170/11 106/139/11 107/138/11 23/169/11
f 19/171/10 105/140/10 106/139/10 21/170/10
f 17/172/9 104/141/9 105/140/9 19/171/9
f 15/173/8 103/142/8 104/141/8 17/172/8
f 13/174/7 102/143/7 103/142/7 15/173/7
f 11/175/6 101/144/6 102/143/6 13/174/6
f 9/176/5 100/145/5 101/144/5 11/175/5
f 7/177/4 99/146/4 100/145/4 9/176/4
f 5/178/3 98/147/3 99/146/3 7/177/3
f 3/179/2 97/148/2 98/147/2 5/178/2
f 1/180/1 112/149/1 97/148/1 3/179/1
